<?xml version="1.0" encoding="UTF-8"?>
<svg version="1.1" xmlns="http://www.w3.org/2000/svg" width="161" height="174">
<path d="M0 0 C53.13 0 106.26 0 161 0 C161 57.42 161 114.84 161 174 C107.87 174 54.74 174 0 174 C0 116.58 0 59.16 0 0 Z " fill="#FCFCFC" transform="translate(0,0)"/>
<path d="M0 0 C49.83 0 99.66 0 151 0 C151 8.91 151 17.82 151 27 C101.17 27 51.34 27 0 27 C0 18.09 0 9.18 0 0 Z " fill="#000000" transform="translate(5,4)"/>
<path d="M0 0 C0.98484375 -0.00128906 1.9696875 -0.00257812 2.984375 -0.00390625 C4.02078125 -0.00003906 5.0571875 0.00382812 6.125 0.0078125 C7.67960937 0.00201172 7.67960937 0.00201172 9.265625 -0.00390625 C10.25046875 -0.00261719 11.2353125 -0.00132813 12.25 0 C13.16007812 0.00112793 14.07015625 0.00225586 15.0078125 0.00341797 C17.125 0.1328125 17.125 0.1328125 18.125 1.1328125 C18.21237645 2.98650861 18.23198153 4.84348791 18.22265625 6.69921875 C18.22015869 7.71185791 18.21766113 8.72449707 18.21508789 9.76782227 C18.20598389 11.06389404 18.19687988 12.35996582 18.1875 13.6953125 C18.166875 17.7996875 18.14625 21.9040625 18.125 26.1328125 C26.375 26.1328125 34.625 26.1328125 43.125 26.1328125 C43.125 33.7228125 43.125 41.3128125 43.125 49.1328125 C34.545 49.1328125 25.965 49.1328125 17.125 49.1328125 C17.125 57.7128125 17.125 66.2928125 17.125 75.1328125 C11.7109375 75.16375 11.7109375 75.16375 6.1875 75.1953125 C5.04804932 75.2044165 3.90859863 75.21352051 2.73461914 75.22290039 C1.84379639 75.22539795 0.95297363 75.22789551 0.03515625 75.23046875 C-1.33950806 75.23832397 -1.33950806 75.23832397 -2.74194336 75.24633789 C-4.875 75.1328125 -4.875 75.1328125 -5.875 74.1328125 C-5.96237645 72.27911639 -5.98198153 70.42213709 -5.97265625 68.56640625 C-5.96943359 67.44169922 -5.96621094 66.31699219 -5.96289062 65.15820312 C-5.95451172 63.97419922 -5.94613281 62.79019531 -5.9375 61.5703125 C-5.93298828 60.38244141 -5.92847656 59.19457031 -5.92382812 57.97070312 C-5.91199675 55.02469024 -5.89551287 52.07877569 -5.875 49.1328125 C-6.6270874 49.13804932 -7.3791748 49.14328613 -8.15405273 49.14868164 C-11.54019342 49.16938477 -14.92632084 49.18245127 -18.3125 49.1953125 C-20.08850586 49.20788086 -20.08850586 49.20788086 -21.90039062 49.22070312 C-23.02509766 49.22392578 -24.14980469 49.22714844 -25.30859375 49.23046875 C-26.87178345 49.23832397 -26.87178345 49.23832397 -28.46655273 49.24633789 C-30.875 49.1328125 -30.875 49.1328125 -31.875 48.1328125 C-31.97399523 46.58325691 -32.00579524 45.02927577 -32.0078125 43.4765625 C-32.00910156 42.53683594 -32.01039062 41.59710938 -32.01171875 40.62890625 C-32.00785156 39.64019531 -32.00398438 38.65148437 -32 37.6328125 C-32.00386719 36.64410156 -32.00773437 35.65539062 -32.01171875 34.63671875 C-32.01042969 33.69699219 -32.00914063 32.75726563 -32.0078125 31.7890625 C-32.00668457 30.92087891 -32.00555664 30.05269531 -32.00439453 29.15820312 C-31.875 27.1328125 -31.875 27.1328125 -30.875 26.1328125 C-29.02130389 26.04543605 -27.16432459 26.02583097 -25.30859375 26.03515625 C-24.18388672 26.03837891 -23.05917969 26.04160156 -21.90039062 26.04492188 C-20.71638672 26.05330078 -19.53238281 26.06167969 -18.3125 26.0703125 C-17.12462891 26.07482422 -15.93675781 26.07933594 -14.71289062 26.08398438 C-11.76687774 26.09581575 -8.82096319 26.11229963 -5.875 26.1328125 C-5.88285522 25.0046814 -5.88285522 25.0046814 -5.89086914 23.85375977 C-5.91157227 20.46761908 -5.92463877 17.08149166 -5.9375 13.6953125 C-5.94587891 12.51130859 -5.95425781 11.32730469 -5.96289062 10.10742188 C-5.96772461 8.42036133 -5.96772461 8.42036133 -5.97265625 6.69921875 C-5.97789307 5.65709229 -5.98312988 4.61496582 -5.98852539 3.54125977 C-5.78574113 -0.76081914 -3.80655263 0.00471775 0 0 Z " fill="#050306" transform="translate(70.875,33.8671875)"/>
<path d="M0 0 C9.24 0 18.48 0 28 0 C28 19.14 28 38.28 28 58 C18.76 58 9.52 58 0 58 C0 38.86 0 19.72 0 0 Z " fill="#090909" transform="translate(5,112)"/>
<path d="M0 0 C9.24 0 18.48 0 28 0 C28 18.81 28 37.62 28 57 C18.76 57 9.52 57 0 57 C0 38.19 0 19.38 0 0 Z " fill="#060606" transform="translate(129,113)"/>
<path d="M0 0 C9.24 0 18.48 0 28 0 C28 18.81 28 37.62 28 57 C18.76 57 9.52 57 0 57 C0 38.19 0 19.38 0 0 Z " fill="#060606" transform="translate(88,113)"/>
<path d="M0 0 C8.91 0 17.82 0 27 0 C27 18.81 27 37.62 27 57 C18.09 57 9.18 57 0 57 C0 38.19 0 19.38 0 0 Z " fill="#000000" transform="translate(46,113)"/>
</svg>
